<?xml version="1.0" encoding="UTF-8" standalone="no"?>
<!-- Created with Inkscape (http://www.inkscape.org/) -->

<svg
   xmlns:dc="http://purl.org/dc/elements/1.1/"
   xmlns:cc="http://creativecommons.org/ns#"
   xmlns:rdf="http://www.w3.org/1999/02/22-rdf-syntax-ns#"
   xmlns:svg="http://www.w3.org/2000/svg"
   xmlns="http://www.w3.org/2000/svg"
   xmlns:sodipodi="http://sodipodi.sourceforge.net/DTD/sodipodi-0.dtd"
   xmlns:inkscape="http://www.inkscape.org/namespaces/inkscape"
   width="128"
   height="128"
   viewBox="0 0 33.866666 33.866669"
   version="1.1"
   id="svg8"
   inkscape:version="0.92.4 (5da689c313, 2019-01-14)"
   sodipodi:docname="favicon.svg">
  <defs
     id="defs2" />
  <sodipodi:namedview
     id="base"
     pagecolor="#ffffff"
     bordercolor="#666666"
     borderopacity="1.0"
     inkscape:pageopacity="0.0"
     inkscape:pageshadow="2"
     inkscape:zoom="7.9195959"
     inkscape:cx="41.348492"
     inkscape:cy="58.705196"
     inkscape:document-units="mm"
     inkscape:current-layer="layer1"
     showgrid="true"
     units="px"
     inkscape:window-width="3840"
     inkscape:window-height="2047"
     inkscape:window-x="0"
     inkscape:window-y="0"
     inkscape:window-maximized="1">
    <inkscape:grid
       type="xygrid"
       id="grid815"
       spacingx="1.0583334"
       spacingy="1.0583334"
       empspacing="4" />
  </sodipodi:namedview>
  <metadata
     id="metadata5">
    <rdf:RDF>
      <cc:Work
         rdf:about="">
        <dc:format>image/svg+xml</dc:format>
        <dc:type
           rdf:resource="http://purl.org/dc/dcmitype/StillImage" />
        <dc:title></dc:title>
      </cc:Work>
    </rdf:RDF>
  </metadata>
  <g
     inkscape:label="Layer 1"
     inkscape:groupmode="layer"
     id="layer1"
     transform="translate(0,-263.13331)">
    <path
       style="opacity:1;fill:#5aa02c;fill-opacity:1;fill-rule:nonzero;stroke:none;stroke-width:0.14111111;stroke-linecap:round;stroke-linejoin:round;stroke-miterlimit:4;stroke-dasharray:none;stroke-opacity:1"
       d="M 13.824481,267.38473 A 12.608416,12.608416 0 0 0 2.1166666,279.94829 12.608416,12.608416 0 0 0 14.725082,292.5567 v -4.503 a 8.1054102,8.1054102 0 0 1 -8.10541,-8.10541 8.1054102,8.1054102 0 0 1 7.204809,-8.04561 z"
       id="path817"
       inkscape:connector-curvature="0" />
    <path
       style="opacity:1;fill:#a02c2c;fill-opacity:1;fill-rule:nonzero;stroke:none;stroke-width:0.14111111;stroke-linecap:round;stroke-linejoin:round;stroke-miterlimit:4;stroke-dasharray:none;stroke-opacity:1"
       d="m 15.625683,267.33987 v 6.37677 a 6.304208,6.304208 0 0 0 -0.900601,-0.0726 6.304208,6.304208 0 0 0 -6.3042078,6.30421 6.304208,6.304208 0 0 0 6.3042078,6.3042 6.304208,6.304208 0 0 0 4.503005,-1.89398 v -8.82044 -0.99339 -7.20481 z"
       id="path821"
       inkscape:connector-curvature="0" />
    <path
       id="path836"
       d="m 24.631696,267.26731 v 6.37677 a 6.3042049,6.304208 0 0 1 0.9006,-0.0726 6.3042049,6.304208 0 0 1 6.304205,6.30421 6.3042049,6.304208 0 0 1 -6.304205,6.30421 6.3042049,6.304208 0 0 1 -4.503003,-1.89399 v -8.82044 -0.99339 -7.2048 z"
       style="opacity:1;fill:#a02c2c;fill-opacity:1;fill-rule:nonzero;stroke:none;stroke-width:0.14111106;stroke-linecap:round;stroke-linejoin:round;stroke-miterlimit:4;stroke-dasharray:none;stroke-opacity:1"
       inkscape:connector-curvature="0" />
  </g>
</svg>
